# xmcd CD database file
#
# Track frame offsets:
#	150
#	14988
#	29112
#	41214
#	56629
#	70217
#	83325
#	98568
#	114213
#	128719
#	142720
#	155328
#	170109
#	184684
#	199665
#	215921
#	230139
#	245341
#	258989
#	274118
#	286894
#	301992
#	320942
#
# Disc length: 4476 seconds
#
# Revision: 1
# Processed by: cddbd v1.5.1PL2 Copyright (c) Steve Scherf et al.
# Submitted via: CDex 1.51
#
DISCID=56117a17
DTITLE=Glen Campbell - Legacy 1961-2002 [CD3]
DYEAR=2003
DGENRE=Country
TTITLE0=Rhinestone Cowboy
TTITLE1=Country Boy (You've Got Your Feet In L.A.)
TTITLE2=Arkansas
TTITLE3=Don't Pull Your Love and Then You Can Tell Me Goodbye (Medley)
TTITLE4=Southern Nights
TTITLE5=Sunflower
TTITLE6=God Only Knows
TTITLE7=I'm Gonna Love You
TTITLE8=Can You Fool
TTITLE9=Highwayman
TTITLE10=Somethin' 'Bout You Baby I Like (With Rita Coolidge)
TTITLE11=Any Which Way You Can
TTITLE12=I Was Too Busy Loving You
TTITLE13=Faithless Love
TTITLE14=A Lady Like You
TTITLE15=The Hand That Rocks The Cradle (With Steve Wariner)
TTITLE16=I Have You
TTITLE17=If These Walls Could Speak
TTITLE18=Unconditional Love
TTITLE19=She's Gone, Gone, Gone
TTITLE20=Show Me Your Way (With Anne Murray)
TTITLE21=Only One Life
TTITLE22=Somebody Like That
EXTD=2003 Capitol Nashville YEAR: 2003
EXTT0=
EXTT1=
EXTT2=
EXTT3=
EXTT4=
EXTT5=
EXTT6=
EXTT7=
EXTT8=
EXTT9=
EXTT10=
EXTT11=
EXTT12=
EXTT13=
EXTT14=
EXTT15=
EXTT16=
EXTT17=
EXTT18=
EXTT19=
EXTT20=
EXTT21=
EXTT22=
PLAYORDER=
